<svg xmlns="http://www.w3.org/2000/svg" xmlns:xlink="http://www.w3.org/1999/xlink" width="200" zoomAndPan="magnify" viewBox="0 0 150 149.999998" height="200" preserveAspectRatio="xMidYMid meet" version="1.0"><path fill="#25f4ee" d="M 53.761719 48.535156 L 50.597656 48.535156 C 46.820312 48.535156 43.660156 51.40625 43.300781 55.167969 L 39.300781 97.042969 C 38.886719 101.347656 42.273438 105.066406 46.59375 105.066406 L 49.761719 105.066406 L 53.765625 48.535156 Z M 53.761719 48.535156 " fill-opacity="1" fill-rule="nonzero"/><path fill="#ff004f" d="M 105.429688 97.042969 L 101.429688 55.167969 C 101.070312 51.40625 97.910156 48.535156 94.132812 48.535156 L 90.980469 48.535156 L 94.984375 105.066406 L 98.132812 105.066406 C 102.457031 105.066406 105.839844 101.34375 105.429688 97.042969 Z M 105.429688 97.042969 " fill-opacity="1" fill-rule="nonzero"/><path fill="#ff004f" d="M 81.046875 39.875 L 84.996094 48.535156 L 88.148438 48.535156 L 88.148438 45.71875 C 88.148438 38.746094 82.496094 33.09375 75.523438 33.097656 C 74.988281 33.097656 74.464844 33.140625 73.949219 33.203125 L 81.050781 39.875 Z M 81.046875 39.875 " fill-opacity="1" fill-rule="nonzero"/><path fill="#25f4ee" d="M 59.75 48.535156 L 62.425781 40.535156 L 70.789062 33.207031 C 70.269531 33.140625 69.742188 33.097656 69.203125 33.097656 C 62.234375 33.097656 56.582031 38.75 56.582031 45.722656 L 56.582031 48.535156 Z M 59.75 48.535156 " fill-opacity="1" fill-rule="nonzero"/><path fill="#000000" d="M 88.738281 74.949219 C 85.519531 74.953125 82.378906 73.941406 79.761719 72.0625 L 79.761719 85.175781 C 79.761719 91.734375 74.445312 97.050781 67.882812 97.050781 C 61.324219 97.050781 56.007812 91.734375 56.007812 85.175781 C 56.007812 78.613281 61.335938 73.296875 67.882812 73.296875 C 68.421875 73.300781 68.953125 73.339844 69.484375 73.414062 L 69.484375 80 C 68.96875 79.835938 68.425781 79.753906 67.882812 79.75 C 64.972656 79.75 62.578125 82.050781 62.464844 84.960938 C 62.347656 87.953125 64.683594 90.472656 67.671875 90.585938 C 70.664062 90.703125 73.183594 88.371094 73.296875 85.378906 L 73.308594 59.519531 L 79.761719 59.519531 C 79.765625 62.554688 81.300781 65.386719 83.847656 67.042969 C 85.300781 67.992188 87.003906 68.496094 88.738281 68.496094 Z M 88.738281 74.949219 " fill-opacity="1" fill-rule="nonzero"/><path fill="#ffffff" d="M 90.257812 70.160156 L 90.257812 48.535156 L 54.488281 48.535156 L 54.488281 70.160156 L 50.488281 70.160156 L 50.488281 98.359375 L 94.261719 98.359375 L 94.261719 70.160156 Z M 90.257812 70.160156 " fill-opacity="1" fill-rule="nonzero"/><path fill="#25f4ee" d="M 53.769531 48.535156 L 50.605469 48.535156 C 46.828125 48.535156 43.667969 51.40625 43.308594 55.167969 L 39.308594 97.042969 C 38.894531 101.347656 42.28125 105.066406 46.605469 105.066406 L 49.769531 105.066406 L 53.773438 48.535156 Z M 53.769531 48.535156 " fill-opacity="1" fill-rule="nonzero"/><path fill="#fe2c55" d="M 105.4375 97.042969 L 101.4375 55.164062 C 101.078125 51.402344 97.917969 48.535156 94.140625 48.535156 L 90.988281 48.535156 L 94.992188 105.066406 L 98.144531 105.066406 C 102.464844 105.066406 105.847656 101.34375 105.4375 97.042969 Z M 105.4375 97.042969 " fill-opacity="1" fill-rule="nonzero"/><path fill="#fe2c55" d="M 81.054688 39.875 L 85.003906 48.535156 L 88.15625 48.535156 L 88.15625 45.71875 C 88.15625 38.746094 82.503906 33.09375 75.53125 33.097656 L 72.378906 33.097656 C 72.378906 33.097656 81.054688 39.875 81.054688 39.875 Z M 81.054688 39.875 " fill-opacity="1" fill-rule="nonzero"/><path fill="#25f4ee" d="M 59.757812 48.535156 L 62.433594 40.535156 L 72.378906 33.097656 L 69.214844 33.097656 C 62.242188 33.097656 56.589844 38.75 56.59375 45.722656 L 56.59375 48.535156 Z M 59.757812 48.535156 " fill-opacity="1" fill-rule="nonzero"/><path fill="#000000" d="M 62.914062 45.722656 C 62.914062 40.5 67.160156 36.253906 72.382812 36.253906 C 77.601562 36.253906 81.851562 40.5 81.851562 45.722656 L 81.851562 48.535156 L 85.007812 48.535156 L 85.007812 45.71875 C 85.007812 38.746094 79.355469 33.09375 72.382812 33.097656 C 65.410156 33.097656 59.757812 38.75 59.761719 45.722656 L 59.761719 48.535156 L 62.917969 48.535156 L 62.917969 45.722656 Z M 62.914062 45.722656 " fill-opacity="1" fill-rule="nonzero"/><path fill="#000000" d="M 102.289062 97.042969 L 98.289062 55.167969 C 97.929688 51.40625 94.769531 48.535156 90.992188 48.535156 L 85.003906 48.535156 L 85.003906 52.574219 C 85.003906 53.445312 84.300781 54.152344 83.425781 54.152344 C 82.554688 54.152344 81.847656 53.445312 81.847656 52.574219 L 81.847656 48.535156 L 62.914062 48.535156 L 62.914062 52.574219 C 62.914062 53.445312 62.207031 54.152344 61.335938 54.152344 C 60.464844 54.152344 59.757812 53.445312 59.757812 52.574219 L 59.757812 48.535156 L 53.769531 48.535156 C 49.992188 48.535156 46.835938 51.40625 46.476562 55.167969 L 42.472656 97.042969 C 42.0625 101.347656 45.445312 105.066406 49.765625 105.066406 L 94.992188 105.066406 C 99.316406 105.066406 102.699219 101.34375 102.289062 97.042969 Z M 88.746094 74.953125 C 85.527344 74.953125 82.386719 73.945312 79.769531 72.0625 L 79.769531 85.175781 C 79.769531 91.734375 74.453125 97.054688 67.890625 97.054688 C 61.332031 97.054688 56.015625 91.738281 56.015625 85.175781 C 56.015625 78.617188 61.34375 73.300781 67.890625 73.300781 C 68.429688 73.304688 68.960938 73.339844 69.492188 73.414062 L 69.492188 80.003906 C 68.976562 79.835938 68.4375 79.753906 67.890625 79.753906 C 64.980469 79.753906 62.585938 82.054688 62.472656 84.964844 C 62.359375 87.953125 64.691406 90.476562 67.683594 90.589844 C 70.675781 90.703125 73.191406 88.371094 73.304688 85.378906 L 73.316406 59.519531 L 79.769531 59.519531 C 79.773438 62.554688 81.308594 65.386719 83.855469 67.042969 C 85.308594 67.992188 87.011719 68.496094 88.746094 68.496094 Z M 88.746094 74.953125 " fill-opacity="1" fill-rule="nonzero"/></svg>