<?xml version="1.0" encoding="UTF-8"?><svg id="_레이어_1" xmlns="http://www.w3.org/2000/svg" viewBox="159 120 402 438"><defs><style>.cls-1{fill:#fff;}.cls-2{fill:#ff004f;}.cls-3{fill:#fe2c55;}.cls-4{fill:#25f4ee;}</style></defs><path class="cls-4" d="m246.95,213.76h-19.24c-22.95,0-42.14,17.44-44.32,40.29l-24.32,254.44c-2.5,26.15,18.06,48.76,44.33,48.76h19.24l24.32-343.49Z"/><path class="cls-2" d="m560.88,508.49l-24.32-254.44c-2.18-22.85-21.37-40.29-44.33-40.29h-19.14l24.32,343.49h19.14c26.26,0,46.82-22.62,44.32-48.76Z"/><path class="cls-2" d="m412.73,161.14l24,52.61h19.14v-17.11c0-42.36-34.35-76.7-76.71-76.69-3.24,0-6.42.27-9.56.66l43.14,40.53Z"/><path class="cls-4" d="m283.32,213.76l16.26-48.62,50.82-44.52c-3.16-.4-6.36-.67-9.63-.67-42.36,0-76.7,34.35-76.69,76.71v17.09h19.24Z"/><path d="m459.46,374.25c-19.57.02-38.65-6.12-54.55-17.54v79.67c0,39.85-32.3,72.16-72.16,72.16s-72.16-32.3-72.16-72.16,32.37-72.16,72.16-72.16c3.26.02,6.5.25,9.73.7v40.02c-3.15-1-6.43-1.51-9.73-1.52-17.7,0-32.25,13.98-32.93,31.67-.7,18.17,13.48,33.48,31.65,34.17,18.18.7,33.47-13.47,34.17-31.65l.07-157.12h39.2c.02,18.45,9.36,35.65,24.84,45.71,8.83,5.77,19.16,8.84,29.71,8.83v39.21Z"/><g><polygon class="cls-1" points="468.69 345.16 468.69 213.76 251.36 213.76 251.36 345.16 227.05 345.16 227.05 516.48 493.01 516.48 493.01 345.16 468.69 345.16"/><path class="cls-4" d="m247,213.76h-19.24c-22.95,0-42.14,17.44-44.32,40.29l-24.32,254.44c-2.5,26.15,18.06,48.76,44.33,48.76h19.24l24.32-343.49Z"/><path class="cls-3" d="m560.93,508.48l-24.32-254.44c-2.18-22.85-21.37-40.29-44.33-40.29h-19.14l24.32,343.49h19.14c26.26,0,46.82-22.62,44.32-48.76Z"/><path class="cls-3" d="m412.78,161.14l24,52.61h19.14v-17.11c0-42.36-34.35-76.7-76.71-76.69h-19.14s52.71,41.19,52.71,41.19Z"/><path class="cls-4" d="m283.38,213.76l16.26-48.62,60.43-45.18h-19.24c-42.36,0-76.7,34.35-76.69,76.71v17.09h19.24Z"/><path d="m302.55,196.66c0-31.72,25.81-57.53,57.53-57.53s57.53,25.81,57.53,57.53v17.09h19.18v-17.11c0-42.36-34.35-76.7-76.71-76.69-42.36,0-76.7,34.35-76.69,76.71v17.09h19.18v-17.09Z"/><path d="m541.8,508.49l-24.32-254.44c-2.18-22.85-21.37-40.29-44.33-40.29h-36.37v24.54c0,5.3-4.29,9.59-9.59,9.59s-9.59-4.29-9.59-9.59v-24.54h-115.05v24.54c0,5.3-4.29,9.59-9.59,9.59s-9.59-4.29-9.59-9.59v-24.54h-36.37c-22.95,0-42.14,17.44-44.33,40.29l-24.32,254.44c-2.5,26.15,18.06,48.76,44.32,48.76h274.79c26.27,0,46.82-22.62,44.33-48.76Zm-82.29-134.23c-19.57.02-38.65-6.12-54.55-17.54v79.67c0,39.85-32.3,72.16-72.16,72.16s-72.16-32.3-72.16-72.16,32.37-72.16,72.16-72.16c3.26.02,6.5.25,9.73.7v40.02c-3.15-1-6.43-1.51-9.73-1.52-17.7,0-32.25,13.98-32.93,31.67-.7,18.17,13.48,33.48,31.65,34.17,18.18.7,33.47-13.47,34.17-31.65l.07-157.12h39.2c.02,18.45,9.36,35.65,24.84,45.71,8.83,5.77,19.16,8.84,29.71,8.83v39.21Z"/></g></svg>